<svg xmlns="http://www.w3.org/2000/svg" xmlns:xlink="http://www.w3.org/1999/xlink" version="1.1" id="Layer_1" x="0px" y="0px" width="100%" viewBox="0 0 505 494" enable-background="new 0 0 505 494" xml:space="preserve">
<path fill="#ffffff" opacity="1.000000" stroke="none" d=" M280.000000,0.999996   C355.316650,1.000000 430.633270,1.000000 505.974976,1.000000   C505.974976,165.613480 505.974976,330.226959 505.974976,494.920227   C337.757202,494.920227 169.514328,494.920227 1.135736,494.920227   C1.135736,330.333405 1.135736,165.666718 1.135736,1.000000   C77.435272,1.000000 153.751602,1.000000 230.873688,1.262034   C229.993286,1.941921 228.323196,2.445879 226.618423,2.763971   C213.285431,5.251757 199.702774,6.824339 186.678772,10.422569   C174.465652,13.796776 162.841370,19.302412 150.592499,23.925831   C135.987747,30.570644 122.218384,37.952351 109.632439,47.909676   C108.833618,48.290592 108.349991,48.623657 107.641876,49.032829   C107.142067,49.297947 106.972992,49.556435 106.556076,49.918266   C93.904472,58.936905 82.580032,68.968674 72.607544,80.892387   C63.817513,91.907928 55.386471,102.872414 46.630043,113.985672   C40.176674,126.030708 34.048683,137.926987 27.598438,150.010101   C23.806665,160.436523 20.337147,170.676102 16.544098,181.138199   C14.857646,187.911636 13.494725,194.462540 12.044367,201.400925   C11.351534,204.529495 10.746139,207.270584 10.097499,210.260162   C10.091947,210.672546 10.129638,210.836426 10.097040,211.430511   C9.401658,218.555267 8.776565,225.249817 8.071894,232.414551   C8.043242,241.930267 8.094166,250.975830 8.085331,260.457214   C8.407326,264.595947 8.789081,268.298828 9.103041,272.429504   C10.413881,280.904572 11.792517,288.951935 13.103683,297.401306   C15.413808,306.202515 17.791403,314.601685 20.111622,323.382233   C23.654076,332.535736 27.253908,341.307800 30.915047,350.447632   C35.934990,359.903107 40.893623,368.990906 46.017326,378.390564   C53.077217,387.852600 59.972038,397.002808 66.904984,406.499023   C69.944183,410.277191 72.665649,414.013580 76.002464,417.080383   C83.828613,424.273315 91.949280,431.145782 100.101616,438.449310   C103.554802,441.387787 106.662621,444.327026 110.197701,446.602539   C119.012680,452.276581 128.021957,457.648773 137.128723,463.451965   C153.090500,470.888092 168.337128,479.439209 185.467896,483.118469   C200.425247,486.330872 215.380386,489.971893 230.533020,491.724854   C242.727768,493.135681 255.217422,491.899261 267.574097,492.033569   C282.456329,492.195312 296.901672,489.275085 311.264709,485.949677   C331.953308,481.159790 351.613007,473.597961 370.481689,463.088257   C373.397308,461.674225 376.123718,460.539368 378.475830,458.875427   C389.060181,451.387817 399.538269,443.750092 410.375061,436.031311   C420.508118,426.283203 430.320740,416.670288 440.444641,406.915802   C441.954041,405.234161 443.197357,403.726868 444.341949,402.148010   C447.966522,397.148529 451.554199,392.122253 455.469910,386.964478   C460.566559,378.900543 465.349426,370.978516 470.434204,362.876862   C471.470978,361.234985 472.295044,359.810089 472.926300,358.304382   C477.011780,348.559448 481.055298,338.796875 485.431000,328.851440   C488.777100,317.442749 491.804749,306.222687 494.891083,294.749878   C494.924530,294.325989 494.899323,294.154846 494.949341,293.660736   C495.068054,292.896637 495.111511,292.455536 495.095825,292.018158   C495.036682,292.021881 495.044525,292.140106 495.286011,292.039459   C495.632507,291.636047 495.737457,291.333282 495.907410,290.607300   C496.607544,285.110779 497.242676,280.037476 498.089844,274.596191   C498.814392,265.819794 499.326935,257.411346 499.906982,248.547485   C499.597900,243.735458 499.221313,239.378891 498.907745,234.559113   C498.275757,226.052887 497.580719,218.009872 496.772552,209.580124   C496.439392,208.096863 496.252350,206.992508 495.994202,205.905045   C493.694122,196.215103 491.381439,186.528137 489.049561,176.451660   C485.389618,166.345963 481.752533,156.628906 478.056274,146.552063   C472.015015,135.405899 466.032898,124.619537 459.891785,113.528206   C451.167969,102.437889 442.603210,91.652542 433.897552,80.564774   C422.518555,70.107384 411.280426,59.952423 399.877319,49.502876   C398.882324,48.713036 398.057465,48.208954 397.221619,47.723858   C383.506165,39.763817 369.789307,31.806158 355.888977,23.529613   C354.779388,22.944933 353.843292,22.709846 352.929382,22.407627   C338.377625,17.595604 323.950928,12.350101 309.233215,8.115984   C300.431213,5.583756 291.167023,4.670657 282.135223,2.903645   C281.330170,2.746142 280.707428,1.656642 280.000000,0.999996  z"/>
<path fill="#741ae7" opacity="1.000000" stroke="none" d=" M150.957977,23.870119   C162.841370,19.302412 174.465652,13.796776 186.678772,10.422569   C199.702774,6.824339 213.285431,5.251757 226.618423,2.763971   C228.323196,2.445879 229.993286,1.941921 231.339722,1.262034   C247.020889,1.000000 263.041779,1.000000 279.531342,0.999996   C280.707428,1.656642 281.330170,2.746142 282.135223,2.903645   C291.167023,4.670657 300.431213,5.583756 309.233215,8.115984   C323.950928,12.350101 338.377625,17.595604 352.929382,22.407627   C353.843292,22.709846 354.779388,22.944933 355.720642,23.834974   C353.372559,24.643494 351.009430,24.984407 348.645447,24.990335   C283.836334,25.152889 219.027176,25.288866 154.217941,25.350836   C153.131760,25.351875 152.044647,24.385214 150.957977,23.870119  z"/>
<path fill="#8926CF" opacity="1.000000" stroke="none" d=" M434.038422,80.867188   C442.603210,91.652542 451.167969,102.437889 459.664490,113.818016   C456.088257,114.609184 452.580688,114.967735 449.072327,114.975624   C426.438812,115.026543 403.804291,114.879585 381.171783,115.040131   C364.219116,115.160378 347.269928,115.810440 330.317474,115.901459   C320.738953,115.952896 311.157837,115.142494 301.576202,115.098579   C290.488373,115.047760 279.398163,115.587654 268.309814,115.558006   C249.183563,115.506866 230.057938,115.213799 210.652802,114.848434   C207.169434,110.842888 204.277893,112.727997 200.939102,115.134758   C189.879791,115.070496 179.297897,115.015488 168.715958,115.005692   C150.797150,114.989105 132.878128,114.952827 114.959572,115.022774   C106.829971,115.054504 98.701912,115.393410 90.572029,115.463905   C77.467529,115.577545 64.361740,115.640381 51.257576,115.556534   C49.819920,115.547333 48.389309,114.436691 46.955429,113.836906   C55.386471,102.872414 63.817513,91.907928 72.782623,81.213699   C78.617233,81.882683 83.918121,82.617966 89.218216,82.612289   C101.463707,82.599174 113.708694,82.038757 125.954109,82.030556   C211.375885,81.973335 296.797760,81.961945 382.219513,82.034416   C398.268311,82.048035 414.316345,82.546295 430.365936,82.672012   C431.585327,82.681564 432.814026,81.496796 434.038422,80.867188  z"/>
<path fill="#8121D8" opacity="1.000000" stroke="none" d=" M433.897552,80.564766   C432.814026,81.496796 431.585327,82.681564 430.365936,82.672012   C414.316345,82.546295 398.268311,82.048035 382.219513,82.034416   C296.797760,81.961945 211.375885,81.973335 125.954109,82.030556   C113.708694,82.038757 101.463707,82.599174 89.218216,82.612289   C83.918121,82.617966 78.617233,81.882683 73.141617,81.162659   C82.580032,68.968674 93.904472,58.936905 106.836685,50.170380   C109.170227,50.853020 110.871048,51.712070 112.567535,51.703579   C116.713882,51.682823 120.858116,51.035774 125.003395,51.033646   C210.833878,50.989586 296.664368,50.990047 382.494843,51.033493   C386.473724,51.035507 390.457794,51.762577 394.428680,51.673050   C396.313019,51.630569 398.171906,50.458031 400.042328,49.797455   C411.280426,59.952423 422.518555,70.107384 433.897552,80.564766  z"/>
<path fill="#D85575" opacity="1.000000" stroke="none" d=" M99.950729,438.147980   C91.949280,431.145782 83.828613,424.273315 76.002464,417.080383   C72.665649,414.013580 69.944183,410.277191 67.377335,406.464630   C70.477158,406.056091 73.142738,406.003632 75.808327,406.003540   C192.947250,405.999451 310.086182,405.988770 427.225067,406.044586   C431.528015,406.046661 435.830627,406.704956 440.133392,407.057404   C430.320740,416.670288 420.508118,426.283203 410.173462,435.694031   C407.138214,434.994690 404.625366,434.064331 402.111755,434.062439   C303.688965,433.988953 205.266129,433.999939 106.843277,434.001404   C105.511131,434.001434 104.179008,434.025513 102.846848,434.032715   C99.952042,434.048340 98.840790,435.315704 99.950729,438.147980  z"/>
<path fill="#BD4593" opacity="1.000000" stroke="none" d=" M494.832397,295.002655   C491.804749,306.222687 488.777100,317.442749 484.955231,328.844116   C395.577942,329.015411 306.994873,329.005341 218.309784,328.536804   C218.229050,317.051453 218.250275,306.024536 218.723145,294.997467   C311.060638,294.999084 402.946533,295.000854 494.832397,295.002655  z"/>
<path fill="#A134B3" opacity="1.000000" stroke="none" d=" M489.072449,176.840302   C491.381439,186.528137 493.694122,196.215103 495.994202,205.905045   C496.252350,206.992508 496.439392,208.096863 496.311340,209.587921   C403.000397,209.987961 310.037506,209.993500 216.993805,209.536438   C216.987442,199.049011 217.061859,189.024155 217.596405,178.998383   C307.220795,179.056229 396.385040,179.123978 485.549255,179.076859   C486.724060,179.076233 487.898102,177.618118 489.072449,176.840302  z"/>
<path fill="#992FBD" opacity="1.000000" stroke="none" d=" M489.049591,176.451660   C487.898102,177.618118 486.724060,179.076233 485.549255,179.076859   C396.385040,179.123978 307.220795,179.056229 217.496552,178.538849   C216.791183,167.386261 216.645798,156.692276 216.886505,146.051392   C219.410797,146.400620 221.548935,146.955246 223.687180,146.955673   C308.496582,146.972412 393.306000,146.938873 478.115417,146.911850   C481.752533,156.628906 485.389618,166.345963 489.049591,176.451660  z"/>
<path fill="#912BC5" opacity="1.000000" stroke="none" d=" M478.056274,146.552063   C393.306000,146.938873 308.496582,146.972412 223.687180,146.955673   C221.548935,146.955246 219.410797,146.400620 216.767670,145.606049   C214.485840,135.079163 212.708954,125.050713 210.932053,115.022255   C230.057938,115.213799 249.183563,115.506866 268.309814,115.558006   C279.398163,115.587654 290.488373,115.047760 301.576202,115.098579   C311.157837,115.142494 320.738953,115.952896 330.317474,115.901459   C347.269928,115.810440 364.219116,115.160378 381.171783,115.040131   C403.804291,114.879585 426.438812,115.026543 449.072327,114.975624   C452.580688,114.967735 456.088257,114.609184 459.823486,114.122986   C466.032898,124.619537 472.015015,135.405899 478.056274,146.552063  z"/>
<path fill="#DF5A6C" opacity="1.000000" stroke="none" d=" M100.101624,438.449310   C98.840790,435.315704 99.952042,434.048340 102.846848,434.032715   C104.179008,434.025513 105.511131,434.001434 106.843277,434.001404   C205.266129,433.999939 303.688965,433.988953 402.111755,434.062439   C404.625366,434.064331 407.138214,434.994690 409.853027,435.829254   C399.538269,443.750092 389.060181,451.387817 378.475830,458.875427   C376.123718,460.539368 373.397308,461.674225 370.072144,462.973877   C366.835663,462.597137 364.370392,462.040375 361.904816,462.038788   C289.010254,461.992310 216.115631,461.991486 143.221054,462.048737   C141.131500,462.050385 139.042496,462.761749 136.953232,463.142151   C128.021957,457.648773 119.012680,452.276581 110.197701,446.602539   C106.662621,444.327026 103.554802,441.387787 100.101624,438.449310  z"/>
<path fill="#C64B8A" opacity="1.000000" stroke="none" d=" M218.411774,328.995270   C306.994873,329.005341 395.577942,329.015411 484.636810,329.032776   C481.055298,338.796875 477.011780,348.559448 472.926300,358.304382   C472.295044,359.810089 471.470978,361.234985 469.957520,362.865601   C428.878784,363.022949 388.578491,362.983185 348.278564,363.082642   C346.183075,363.087799 344.090546,364.280243 341.599579,364.978516   C337.354523,365.542633 336.716949,363.210876 336.923859,359.819824   C336.987396,359.024475 337.019714,358.569702 337.389038,358.017883   C340.401886,354.351471 337.371613,353.106323 335.020081,352.418213   C332.032471,351.543915 328.791962,351.089417 325.678589,351.168488   C313.711212,351.472351 301.749390,352.023651 289.788605,352.552643   C267.540863,353.536530 245.292480,354.513458 223.051437,355.633331   C219.031982,355.835693 217.741653,354.140839 217.875717,350.425476   C218.133438,343.284912 218.241592,336.138977 218.411774,328.995270  z"/>
<path fill="#D1517C" opacity="1.000000" stroke="none" d=" M440.444641,406.915802   C435.830627,406.704956 431.528015,406.046661 427.225067,406.044586   C310.086182,405.988770 192.947250,405.999451 75.808327,406.003540   C73.142738,406.003632 70.477158,406.056091 67.339218,406.118591   C59.972038,397.002808 53.077217,387.852600 46.493919,378.374298   C49.464497,378.030792 52.123547,378.002197 54.782593,378.001984   C92.842110,377.998962 130.901764,378.039246 168.960831,377.905060   C171.337677,377.896698 173.709732,376.528107 176.457214,375.723785   C177.186157,373.846710 177.856415,372.034729 177.836548,370.230347   C177.784546,365.506409 177.431168,360.785767 177.462051,356.053101   C178.254242,356.065186 178.782288,356.088013 179.404968,356.563019   C179.567383,360.480499 179.454575,363.961517 179.753220,367.406830   C180.058365,370.927155 180.767319,374.412476 181.007660,378.033386   C177.897598,381.147034 180.786789,381.873077 182.846191,383.210297   C183.363464,383.614746 183.679153,383.817749 183.998260,384.007233   C184.001678,383.993744 183.977402,384.008057 184.096161,384.222321   C184.417313,384.705261 184.675644,384.899567 184.995560,385.008545   C185.001221,384.997559 184.980011,385.010590 185.096405,385.225616   C185.414780,385.709320 185.673416,385.901947 185.994659,386.008667   C186.000610,385.998779 185.981140,386.011719 186.096527,386.227966   C186.413925,386.714355 186.673569,386.906738 186.977936,387.016113   C186.965057,387.010803 186.967804,387.039520 187.061707,387.254852   C187.319504,387.739502 187.517014,387.981384 187.894821,388.385742   C188.262100,388.808044 188.501938,389.018524 188.909424,389.392517   C189.280823,389.803558 189.524445,390.004089 189.937866,390.364929   C190.311188,390.775726 190.557373,390.973755 191.262878,391.213806   C192.286163,391.217377 192.872147,391.151520 193.299072,391.418701   C192.917786,391.646149 192.695557,391.540497 192.481262,391.723877   C192.607376,392.378479 192.725555,392.744049 192.917358,393.383789   C193.306229,394.124237 193.621429,394.590485 194.140411,395.326477   C195.561050,396.062836 196.777924,396.529510 198.329590,396.998535   C199.110336,396.999847 199.556305,396.998749 200.185028,397.300781   C205.579529,398.068726 210.791260,398.533569 216.469421,399.008850   C221.945679,399.002808 226.955475,398.986328 232.324066,398.964783   C234.453262,397.981293 236.223679,397.002869 238.449387,396.011719   C242.658524,395.572876 246.404053,395.038696 250.168411,394.749786   C254.272964,394.434753 259.460724,392.711670 262.263245,394.537964   C266.626312,397.381226 270.730408,396.868286 275.011902,396.813232   C280.446808,396.743347 285.887115,395.574463 291.301605,395.724823   C306.218597,396.139038 320.765320,394.183197 335.416656,390.067322   C336.533295,389.300934 337.296265,388.526489 338.067688,387.323273   C338.088959,386.322723 338.101776,385.750977 338.553589,385.149872   C343.610352,387.142395 347.638916,384.863098 352.114380,383.649170   C354.712433,384.285797 356.968994,384.935333 359.230194,384.951813   C373.485291,385.055695 387.742798,384.896759 401.996796,385.061646   C417.608887,385.242188 433.218964,385.642273 448.827332,386.047028   C450.944672,386.101929 453.046906,386.738922 455.156128,387.106354   C451.554199,392.122253 447.966522,397.148529 444.341949,402.148010   C443.197357,403.726868 441.954041,405.234161 440.444641,406.915802  z"/>
<path fill="#A838AB" opacity="1.000000" stroke="none" d=" M217.074585,209.999023   C310.037506,209.993500 403.000397,209.987961 496.424500,209.974640   C497.580719,218.009872 498.275757,226.052887 498.531311,234.711380   C495.785278,235.551132 493.479370,235.961334 491.172028,235.969711   C475.406250,236.026947 459.640137,235.999832 443.874146,235.999863   C429.441071,235.999893 415.007507,236.075012 400.575134,235.975388   C389.605164,235.899658 378.636261,235.417572 367.667694,235.444489   C349.877991,235.488159 332.089294,235.914520 314.299500,235.973938   C285.500671,236.070114 256.701202,236.033600 227.902252,235.955719   C224.432541,235.946335 220.964478,235.332504 217.388367,234.540894   C217.212265,226.054977 217.143433,218.026993 217.074585,209.999023  z"/>
<path fill="#B6409C" opacity="1.000000" stroke="none" d=" M494.891083,294.749878   C402.946533,295.000854 311.060638,294.999084 218.624054,294.538086   C218.058899,286.052551 218.044495,278.026215 218.496857,269.999817   C309.223114,269.999969 399.482605,270.017029 489.742035,269.944427   C493.732513,269.941223 497.093994,270.149445 497.877808,274.964203   C497.242676,280.037476 496.607544,285.110779 495.763123,290.783386   C495.371063,291.626434 495.201294,291.878906 495.044525,292.140106   C495.044525,292.140106 495.036682,292.021881 494.952393,292.189026   C494.870087,292.898712 494.872070,293.441223 494.874084,293.983734   C494.899323,294.154846 494.924530,294.325989 494.891083,294.749878  z"/>
<path fill="#7A1CE0" opacity="1.000000" stroke="none" d=" M399.877319,49.502861   C398.171906,50.458031 396.313019,51.630569 394.428680,51.673050   C390.457794,51.762577 386.473724,51.035507 382.494843,51.033493   C296.664368,50.990047 210.833878,50.989586 125.003395,51.033646   C120.858116,51.035774 116.713882,51.682823 112.567535,51.703579   C110.871048,51.712070 109.170227,50.853020 107.190773,50.136520   C106.972992,49.556435 107.142067,49.297947 107.930435,48.954048   C108.944862,48.486706 109.446251,48.174259 109.947639,47.861816   C122.218384,37.952351 135.987747,30.570644 150.592499,23.925827   C152.044647,24.385214 153.131760,25.351875 154.217941,25.350836   C219.027176,25.288866 283.836334,25.152889 348.645447,24.990335   C351.009430,24.984407 353.372559,24.643494 355.904419,24.153334   C369.789307,31.806158 383.506165,39.763817 397.221619,47.723858   C398.057465,48.208954 398.882324,48.713036 399.877319,49.502861  z"/>
<path fill="#AD3BA5" opacity="1.000000" stroke="none" d=" M217.495651,234.998825   C220.964478,235.332504 224.432541,235.946335 227.902252,235.955719   C256.701202,236.033600 285.500671,236.070114 314.299500,235.973938   C332.089294,235.914520 349.877991,235.488159 367.667694,235.444489   C378.636261,235.417572 389.605164,235.899658 400.575134,235.975388   C415.007507,236.075012 429.441071,235.999893 443.874146,235.999863   C459.640137,235.999832 475.406250,236.026947 491.172028,235.969711   C493.479370,235.961334 495.785278,235.551132 498.468262,235.174591   C499.221313,239.378891 499.597900,243.735458 499.616577,248.737305   C497.831390,252.757202 495.580841,254.104034 491.639679,254.097107   C415.754944,253.963623 339.869843,254.021317 263.984924,253.960648   C256.687988,253.954819 249.393631,253.323563 242.094147,253.171616   C233.990891,253.002960 225.883133,253.051147 217.649719,252.599213   C217.513306,246.461945 217.504471,240.730377 217.495651,234.998825  z"/>
<path fill="#A939AB" opacity="1.000000" stroke="none" d=" M8.151471,231.944382   C8.776565,225.249817 9.401658,218.555267 10.555038,211.430420   C61.079346,211.000107 111.075386,211.020035 161.071320,210.956589   C164.540619,210.952194 168.009125,210.327560 171.509460,210.459503   C171.519714,221.282608 171.498505,231.637558 171.041412,241.992859   C127.513298,242.154846 84.420952,242.290649 41.328934,242.496368   C30.567181,242.547729 19.806503,242.824478 9.023506,242.548325   C8.718279,238.714142 8.434875,235.329254 8.151471,231.944382  z"/>
<path fill="#922BC5" opacity="1.000000" stroke="none" d=" M46.630047,113.985672   C48.389309,114.436691 49.819920,115.547333 51.257576,115.556534   C64.361740,115.640381 77.467529,115.577545 90.572029,115.463905   C98.701912,115.393410 106.829971,115.054504 114.959572,115.022774   C132.878128,114.952827 150.797150,114.989105 168.715958,115.005692   C179.297897,115.015488 189.879791,115.070496 200.836792,115.484650   C198.720688,123.238068 196.312622,130.642059 193.666183,137.959869   C193.154663,139.374329 191.711182,140.451767 190.697601,141.684662   C190.124649,140.350876 189.211090,139.058044 189.044907,137.675369   C188.609848,134.055115 188.671509,130.373947 188.210968,126.758354   C187.808624,123.599792 185.759125,122.197800 182.530472,122.613213   C180.285583,122.902046 178.031067,123.115913 175.971527,123.342308   C175.075058,131.960037 174.234299,140.042358 172.957214,148.181702   C169.379623,148.492432 166.238602,148.963364 163.097031,148.967010   C120.838478,149.016068 78.579849,148.984375 36.321312,149.035416   C33.520790,149.038788 30.720886,149.548859 27.920692,149.823257   C34.048683,137.926987 40.176674,126.030708 46.630047,113.985672  z"/>
<path fill="#E65E65" opacity="1.000000" stroke="none" d=" M137.128723,463.451965   C139.042496,462.761749 141.131500,462.050385 143.221054,462.048737   C216.115631,461.991486 289.010254,461.992310 361.904816,462.038788   C364.370392,462.040375 366.835663,462.597137 369.710571,463.009491   C351.613007,473.597961 331.953308,481.159790 311.264709,485.949677   C296.901672,489.275085 282.456329,492.195312 267.574097,492.033569   C255.217422,491.899261 242.727768,493.135681 230.533020,491.724854   C215.380386,489.971893 200.425247,486.330872 185.467896,483.118469   C168.337128,479.439209 153.090500,470.888092 137.128723,463.451965  z"/>
<path fill="#9A30BC" opacity="1.000000" stroke="none" d=" M27.598438,150.010101   C30.720886,149.548859 33.520790,149.038788 36.321312,149.035416   C78.579849,148.984375 120.838478,149.016068 163.097031,148.967010   C166.238602,148.963364 169.379623,148.492432 173.024551,148.634796   C172.643433,159.353485 171.758682,169.676102 170.463745,180.045715   C167.749985,180.392975 165.446564,180.954025 163.142838,180.955185   C114.384453,180.979935 65.626038,180.941650 16.867632,180.915665   C20.337147,170.676102 23.806665,160.436523 27.598438,150.010101  z"/>
<path fill="#A134B3" opacity="1.000000" stroke="none" d=" M16.544102,181.138199   C65.626038,180.941650 114.384453,180.979935 163.142838,180.955185   C165.446564,180.954025 167.749985,180.392975 170.537140,180.470581   C171.173126,190.562759 171.325562,200.277039 171.477997,209.991333   C168.009125,210.327560 164.540619,210.952194 161.071320,210.956589   C111.075386,211.020035 61.079346,211.000107 10.625328,211.000229   C10.129638,210.836426 10.091947,210.672546 10.387946,210.074829   C11.191693,206.765152 11.661749,203.889297 12.131805,201.013443   C13.494725,194.462540 14.857646,187.911636 16.544102,181.138199  z"/>
<path fill="#B03DA2" opacity="1.000000" stroke="none" d=" M9.045332,242.997650   C19.806503,242.824478 30.567181,242.547729 41.328934,242.496368   C84.420952,242.290649 127.513298,242.154846 171.074234,242.425476   C171.603745,245.159470 171.664566,247.461151 171.590393,250.163452   C171.398285,257.383301 171.341141,264.202545 170.828033,271.018433   C157.635544,271.343262 144.899353,271.909119 132.162384,271.927338   C121.218735,271.943024 110.275635,271.119629 99.329720,271.044952   C77.228386,270.894226 55.124779,270.913544 33.023209,271.045990   C25.070795,271.093658 17.121534,271.667847 9.170835,272.001770   C8.789081,268.298828 8.407326,264.595947 8.315225,260.109009   C8.751696,253.882523 8.898514,248.440079 9.045332,242.997650  z"/>
<path fill="#B13EA1" opacity="1.000000" stroke="none" d=" M217.777313,253.004929   C225.883133,253.051147 233.990891,253.002960 242.094147,253.171616   C249.393631,253.323563 256.687988,253.954819 263.984924,253.960648   C339.869843,254.021317 415.754944,253.963623 491.639679,254.097107   C495.580841,254.104034 497.831390,252.757202 499.549011,249.192749   C499.326935,257.411346 498.814392,265.819794 498.089844,274.596191   C497.093994,270.149445 493.732513,269.941223 489.742035,269.944427   C399.482605,270.017029 309.223114,269.999969 218.379089,269.544922   C217.788818,263.728394 217.783066,258.366669 217.777313,253.004929  z"/>
<path fill="#B7439C" opacity="1.000000" stroke="none" d=" M9.103041,272.429504   C17.121534,271.667847 25.070795,271.093658 33.023209,271.045990   C55.124779,270.913544 77.228386,270.894226 99.329720,271.044952   C110.275635,271.119629 121.218735,271.943024 132.162384,271.927338   C144.899353,271.909119 157.635544,271.343262 170.912994,271.437012   C171.671097,280.239563 171.888260,288.620087 171.632812,297.000397   C118.497192,296.999878 65.834175,296.999573 13.171152,296.999268   C11.792517,288.951935 10.413881,280.904572 9.103041,272.429504  z"/>
<path fill="#C4498C" opacity="1.000000" stroke="none" d=" M30.853741,350.079895   C27.253908,341.307800 23.654076,332.535736 20.564959,323.382050   C35.173435,323.000305 49.271847,323.078033 63.368622,322.959961   C68.673462,322.915558 73.972908,322.220520 79.277702,322.177368   C85.415527,322.127380 91.556183,322.599640 97.696236,322.616638   C117.936073,322.672607 138.176239,322.600677 158.416183,322.635468   C163.362366,322.643951 168.308182,322.872162 173.366150,323.399597   C173.694595,328.133698 173.911057,332.467560 174.075592,337.215851   C174.235931,339.753510 174.448181,341.876770 174.688629,344.428040   C174.712982,346.570435 174.709137,348.284760 174.255096,349.999146   C126.154526,350.026123 78.504135,350.053009 30.853741,350.079895  z"/>
<path fill="#BD4594" opacity="1.000000" stroke="none" d=" M173.254181,322.999359   C168.308182,322.872162 163.362366,322.643951 158.416183,322.635468   C138.176239,322.600677 117.936073,322.672607 97.696236,322.616638   C91.556183,322.599640 85.415527,322.127380 79.277702,322.177368   C73.972908,322.220520 68.673462,322.915558 63.368622,322.959961   C49.271847,323.078033 35.173435,323.000305 20.622334,323.000641   C17.791403,314.601685 15.413808,306.202515 13.103683,297.401306   C65.834175,296.999573 118.497192,296.999878 171.728119,297.436981   C172.615387,306.248993 172.934784,314.624176 173.254181,322.999359  z"/>
<path fill="#CA4D85" opacity="1.000000" stroke="none" d=" M30.915051,350.447632   C78.504135,350.053009 126.154526,350.026123 174.328766,350.453094   C175.263092,359.202087 175.673553,367.497192 176.084015,375.792358   C173.709732,376.528107 171.337677,377.896698 168.960831,377.905060   C130.901764,378.039246 92.842110,377.998962 54.782593,378.001984   C52.123547,378.002197 49.464497,378.030792 46.328854,378.062439   C40.893623,368.990906 35.934990,359.903107 30.915051,350.447632  z"/>
<path fill="#CE5181" opacity="1.000000" stroke="none" d=" M455.469910,386.964478   C453.046906,386.738922 450.944672,386.101929 448.827332,386.047028   C433.218964,385.642273 417.608887,385.242188 401.996796,385.061646   C387.742798,384.896759 373.485291,385.055695 359.230194,384.951813   C356.968994,384.935333 354.712433,384.285797 352.359924,383.439697   C359.713104,378.276337 359.578308,372.525574 351.729523,368.536713   C348.664215,366.978912 345.251251,366.105255 341.996643,364.919952   C344.090546,364.280243 346.183075,363.087799 348.278564,363.082642   C388.578491,362.983185 428.878784,363.022949 469.655640,363.045227   C465.349426,370.978516 460.566559,378.900543 455.469910,386.964478  z"/>
<path fill="#C474BF" opacity="1.000000" stroke="none" d=" M9.023507,242.548340   C8.898514,248.440079 8.751696,253.882523 8.374985,259.673157   C8.094166,250.975830 8.043242,241.930267 8.071895,232.414551   C8.434875,235.329254 8.718279,238.714142 9.023507,242.548340  z"/>
<path fill="#A939AB" opacity="1.000000" stroke="none" d=" M12.044367,201.400925   C11.661749,203.889297 11.191693,206.765152 10.431190,209.826340   C10.746139,207.270584 11.351534,204.529495 12.044367,201.400925  z"/>
<path fill="#BD4593" opacity="1.000000" stroke="none" d=" M494.949341,293.660736   C494.872070,293.441223 494.870087,292.898712 495.011536,292.185303   C495.111511,292.455536 495.068054,292.896637 494.949341,293.660736  z"/>
<path fill="#8121D8" opacity="1.000000" stroke="none" d=" M109.632439,47.909676   C109.446251,48.174259 108.944862,48.486706 108.154922,48.877937   C108.349991,48.623657 108.833618,48.290592 109.632439,47.909676  z"/>
<path fill="#BD4593" opacity="1.000000" stroke="none" d=" M495.286011,292.039459   C495.201294,291.878906 495.371063,291.626434 495.698120,291.206604   C495.737457,291.333282 495.632507,291.636047 495.286011,292.039459  z"/>
<path fill="#FEFCFD" opacity="1.000000" stroke="none" d=" M341.599579,364.978516   C345.251251,366.105255 348.664215,366.978912 351.729523,368.536713   C359.578308,372.525574 359.713104,378.276337 352.020630,383.159912   C347.638916,384.863098 343.610352,387.142395 338.201294,385.021271   C327.376740,384.862793 317.343506,384.803589 306.885864,384.614655   C299.395477,384.981201 292.329468,385.477478 285.263489,385.973785   C285.286377,386.394440 285.309265,386.815125 285.332184,387.235809   C292.551239,386.886200 299.770325,386.536621 307.447754,386.211060   C314.604584,386.476440 321.303070,386.717804 328.174438,387.093323   C328.901398,387.177795 329.455444,387.128082 330.386597,387.129333   C332.520142,387.445282 334.276642,387.710205 335.960785,388.255249   C335.613281,389.043335 335.338135,389.551300 335.062958,390.059265   C320.765320,394.183197 306.218597,396.139038 291.301605,395.724823   C285.887115,395.574463 280.446808,396.743347 275.011902,396.813232   C270.730408,396.868286 266.626312,397.381226 262.263245,394.537964   C259.460724,392.711670 254.272964,394.434753 250.168411,394.749786   C246.404053,395.038696 242.658524,395.572876 238.092346,395.811035   C226.180481,395.128937 215.080948,394.634827 203.665253,394.015137   C199.734818,393.120575 196.120575,392.351532 192.529678,391.538513   C192.553024,391.494537 192.473312,391.434845 192.473312,391.434845   C192.695557,391.540497 192.917786,391.646149 193.268204,391.395569   C193.396393,391.039368 193.337296,391.090424 193.538940,390.880157   C192.155334,388.783051 190.570053,386.896240 188.785980,384.744751   C186.157944,382.291107 183.728729,380.102112 181.299515,377.913116   C180.767319,374.412476 180.058365,370.927155 179.753220,367.406830   C179.454575,363.961517 179.567383,360.480499 179.529358,356.135956   C178.469894,333.137726 177.380676,311.018677 176.348312,288.443909   C176.312836,286.000488 176.440399,283.971191 176.074020,282.035370   C175.586456,279.459320 174.714264,276.956085 173.781296,274.150787   C173.134781,271.812256 172.457245,269.758636 172.342575,267.674072   C172.014481,261.710388 171.914856,255.734146 171.725372,249.762848   C171.664566,247.461151 171.603745,245.159470 171.510132,242.425140   C171.498505,231.637558 171.519714,221.282608 171.509460,210.459503   C171.325562,200.277039 171.173126,190.562759 170.947311,180.423599   C171.758682,169.676102 172.643433,159.353485 173.460876,148.577759   C174.234299,140.042358 175.075058,131.960037 175.971527,123.342308   C178.031067,123.115913 180.285583,122.902046 182.530472,122.613213   C185.759125,122.197800 187.808624,123.599792 188.210968,126.758354   C188.671509,130.373947 188.609848,134.055115 189.044907,137.675369   C189.211090,139.058044 190.124649,140.350876 190.697601,141.684662   C191.711182,140.451767 193.154663,139.374329 193.666183,137.959869   C196.312622,130.642059 198.720688,123.238068 201.314178,115.514236   C204.277893,112.727997 207.169434,110.842888 210.652802,114.848434   C212.708954,125.050713 214.485840,135.079163 216.381561,145.552948   C216.645798,156.692276 216.791183,167.386261 217.036423,178.539764   C217.061859,189.024155 216.987442,199.049011 216.993805,209.536438   C217.143433,218.026993 217.212265,226.054977 217.388367,234.540894   C217.504471,240.730377 217.513306,246.461945 217.649719,252.599213   C217.783066,258.366669 217.788818,263.728394 217.912323,269.545013   C218.044495,278.026215 218.058899,286.052551 218.172424,294.538269   C218.250275,306.024536 218.229050,317.051453 218.309784,328.536804   C218.241592,336.138977 218.133438,343.284912 217.875717,350.425476   C217.741653,354.140839 219.031982,355.835693 223.051437,355.633331   C245.292480,354.513458 267.540863,353.536530 289.788605,352.552643   C301.749390,352.023651 313.711212,351.472351 325.678589,351.168488   C328.791962,351.089417 332.032471,351.543915 335.020081,352.418213   C337.371613,353.106323 340.401886,354.351471 336.927612,357.912598   C330.448090,357.974640 324.767029,358.044922 318.620056,358.045502   C310.793640,358.360596 303.433136,358.745422 295.627106,359.095642   C287.895996,359.702271 280.610443,360.343506 273.324890,360.984741   C273.373993,361.484406 273.423096,361.984070 273.472168,362.483734   C280.993408,361.838531 288.514618,361.193329 296.501648,360.497620   C304.413574,360.115021 311.859680,359.782959 319.753204,359.481384   C325.764618,359.728058 331.328613,359.944214 336.892609,360.160400   C336.716949,363.210876 337.354523,365.542633 341.599579,364.978516  M250.082306,362.737305   C240.434357,362.737305 230.786407,362.737305 221.138458,362.737305   C221.158829,363.119751 221.179184,363.502167 221.199539,363.884613   C233.436295,363.884613 245.673050,363.884613 257.909821,363.884613   C257.899017,363.384216 257.888245,362.883820 257.877441,362.383453   C255.576477,362.498505 253.275513,362.613586 250.082306,362.737305  M186.947784,374.550568   C186.025894,362.386993 185.103989,350.223419 184.182098,338.059845   C183.657059,338.099152 183.132004,338.138458 182.606964,338.177765   C183.443680,350.377258 184.272888,362.577301 185.184540,374.771240   C185.199051,374.965240 186.224808,375.083649 186.947784,374.550568  M232.419952,390.976166   C235.915756,390.681427 239.411560,390.386658 242.907364,390.091919   C242.880615,389.823181 242.853867,389.554413 242.827118,389.285675   C233.961075,389.285675 225.095047,389.285675 216.229004,389.285675   C216.222626,389.538239 216.216248,389.790802 216.209854,390.043365   C221.295746,390.356079 226.381638,390.668762 232.419952,390.976166  M202.837173,388.541595   C198.799728,385.989685 194.762268,383.437775 190.724823,380.885864   C192.759918,386.599762 195.986252,390.285370 202.837173,388.541595  M212.549210,365.767242   C213.218719,365.293152 213.888229,364.819061 214.557755,364.345001   C213.803955,363.624390 213.117554,362.392151 212.283295,362.282257   C210.068573,361.990479 207.790039,362.183197 204.124954,362.183197   C207.485367,363.658600 209.664841,364.615540 212.549210,365.767242  z"/>
<path fill="#D980A8" opacity="1.000000" stroke="none" d=" M336.923859,359.819824   C331.328613,359.944214 325.764618,359.728058 319.727051,359.258118   C319.179016,358.711487 319.123199,358.415070 319.085999,358.115173   C324.767029,358.044922 330.448090,357.974640 336.590576,358.009644   C337.019714,358.569702 336.987396,359.024475 336.923859,359.819824  z"/>
<path fill="#C961A0" opacity="1.000000" stroke="none" d=" M176.291458,288.899658   C177.380676,311.018677 178.469894,333.137726 179.434723,355.683807   C178.782288,356.088013 178.254242,356.065186 177.414124,355.584778   C177.102051,350.772278 177.102051,346.417389 177.102051,341.364166   C175.880630,342.682739 175.270523,343.341370 174.660431,344.000000   C174.448181,341.876770 174.235931,339.753510 174.400360,337.049683   C175.172791,332.932587 175.993393,329.383270 175.887405,325.861847   C175.517761,313.580444 174.827621,301.308685 174.597870,289.009644   C175.388123,288.957245 175.839783,288.928467 176.291458,288.899658  z"/>
<path fill="#D66288" opacity="1.000000" stroke="none" d=" M203.981430,394.140686   C215.080948,394.634827 226.180481,395.128937 237.637039,395.823761   C236.223679,397.002869 234.453262,397.981293 232.142853,398.655151   C226.402908,398.566528 221.202942,398.782471 216.002975,398.998413   C210.791260,398.533569 205.579529,398.068726 200.183777,397.302124   C199.999725,397.000366 199.993530,397.008087 200.351151,396.991760   C201.799652,396.030518 202.890533,395.085602 203.981430,394.140686  z"/>
<path fill="#CE5181" opacity="1.000000" stroke="none" d=" M328.001556,386.959167   C321.303070,386.717804 314.604584,386.476440 307.512695,385.973206   C307.207825,385.393921 307.271484,385.071625 307.310242,384.744385   C317.343506,384.803589 327.376740,384.862793 337.762299,385.050598   C338.101776,385.750977 338.088959,386.322723 337.726685,387.336548   C336.929199,387.844147 336.481171,387.909637 336.033112,387.975159   C334.276642,387.710205 332.520142,387.445282 330.216125,386.987396   C329.112915,386.849365 328.557220,386.904266 328.001556,386.959167  z"/>
<path fill="#E8B4CC" opacity="1.000000" stroke="none" d=" M174.688629,344.428040   C175.270523,343.341370 175.880630,342.682739 177.102051,341.364166   C177.102051,346.417389 177.102051,350.772278 177.149994,355.595490   C177.431168,360.785767 177.784546,365.506409 177.836548,370.230347   C177.856415,372.034729 177.186157,373.846710 176.457214,375.723755   C175.673553,367.497192 175.263092,359.202087 174.778961,350.453003   C174.709137,348.284760 174.712982,346.570435 174.688629,344.428040  z"/>
<path fill="#D76C93" opacity="1.000000" stroke="none" d=" M181.007660,378.033386   C183.728729,380.102112 186.157944,382.291107 188.613739,384.973206   C188.415390,385.989899 188.190445,386.513489 187.716080,387.035461   C187.466644,387.033905 186.967804,387.039520 186.967804,387.039520   C186.967804,387.039520 186.965057,387.010803 186.826385,386.831604   C186.473587,386.415253 186.238068,386.201660 185.981140,386.011719   C185.981140,386.011719 186.000610,385.998779 185.843353,385.824371   C185.471725,385.413666 185.236374,385.200531 184.980011,385.010590   C184.980011,385.010590 185.001221,384.997559 184.843353,384.823975   C184.469849,384.413727 184.233826,384.199646 183.977402,384.008057   C183.977402,384.008057 184.001678,383.993744 183.798553,383.809326   C183.278503,383.419525 182.961563,383.214172 182.644623,383.008850   C180.786789,381.873077 177.897598,381.147034 181.007660,378.033386  z"/>
<path fill="#DB7293" opacity="1.000000" stroke="none" d=" M216.469421,399.008850   C221.202942,398.782471 226.402908,398.566528 231.784088,398.660217   C226.955475,398.986328 221.945679,399.002808 216.469421,399.008850  z"/>
<path fill="#DD7E9E" opacity="1.000000" stroke="none" d=" M197.994781,396.996185   C196.777924,396.529510 195.561050,396.062836 194.186142,395.278992   C194.028091,394.961853 194.118744,394.866211 194.498871,394.862122   C195.908127,394.912537 196.937271,394.967010 197.979462,395.350708   C197.993271,396.118652 197.994019,396.557434 197.994781,396.996185  z"/>
<path fill="#E398B3" opacity="1.000000" stroke="none" d=" M335.960785,388.255249   C336.481171,387.909637 336.929199,387.844147 337.718262,387.765320   C337.296265,388.526489 336.533295,389.300934 335.416656,390.067322   C335.338135,389.551300 335.613281,389.043335 335.960785,388.255249  z"/>
<path fill="#D66288" opacity="1.000000" stroke="none" d=" M198.329575,396.998535   C197.994019,396.557434 197.993271,396.118652 198.258789,395.455261   C199.014542,395.823090 199.504044,396.415588 199.993530,397.008087   C199.993530,397.008087 199.999725,397.000366 200.000992,396.999023   C199.556305,396.998749 199.110336,396.999847 198.329575,396.998535  z"/>
<path fill="#DD7E9E" opacity="1.000000" stroke="none" d=" M193.982361,395.009308   C193.621429,394.590485 193.306229,394.124237 192.978058,393.340393   C192.965118,393.022797 193.082382,392.937500 193.268219,393.146515   C193.675613,393.859100 193.897171,394.362640 194.118744,394.866211   C194.118744,394.866211 194.028091,394.961853 193.982361,395.009308  z"/>
<path fill="#DD7E9E" opacity="1.000000" stroke="none" d=" M186.096527,386.227966   C186.238068,386.201660 186.473587,386.415253 186.839264,386.836914   C186.673569,386.906738 186.413925,386.714355 186.096527,386.227966  z"/>
<path fill="#DD7E9E" opacity="1.000000" stroke="none" d=" M192.481262,391.723877   C192.473312,391.434845 192.553024,391.494537 192.674896,391.879578   C192.891998,392.488892 192.987198,392.713196 193.082382,392.937500   C193.082382,392.937500 192.965118,393.022797 192.904419,393.066223   C192.725555,392.744049 192.607376,392.378479 192.481262,391.723877  z"/>
<path fill="#DD7E9E" opacity="1.000000" stroke="none" d=" M193.337296,391.090454   C193.337296,391.090424 193.396393,391.039368 193.427277,391.062500   C192.872147,391.151520 192.286163,391.217377 191.310120,391.173523   C190.920059,391.063751 191.013809,390.982300 191.592621,391.052185   C192.560059,391.111542 192.948685,391.100983 193.337296,391.090454  z"/>
<path fill="#DD7E9E" opacity="1.000000" stroke="none" d=" M190.872833,391.104065   C190.557373,390.973755 190.311188,390.775726 189.996262,390.314667   C189.905502,390.079010 190.022202,389.978424 190.205322,390.127502   C190.622375,390.489227 190.830826,390.724457 191.013809,390.982300   C191.013809,390.982300 190.920059,391.063751 190.872833,391.104065  z"/>
<path fill="#DD7E9E" opacity="1.000000" stroke="none" d=" M189.847107,390.129272   C189.524445,390.004089 189.280823,389.803558 188.977997,389.332153   C188.898148,389.086395 189.035309,388.965790 189.218872,389.115204   C189.636993,389.478271 189.843582,389.716187 190.022202,389.978424   C190.022202,389.978424 189.905502,390.079010 189.847107,390.129272  z"/>
<path fill="#DD7E9E" opacity="1.000000" stroke="none" d=" M188.829575,389.146729   C188.501938,389.018524 188.262100,388.808044 187.975861,388.324402   C187.910202,388.073090 188.068024,387.954163 188.245789,388.106262   C188.652115,388.472870 188.856033,388.708679 189.035309,388.965790   C189.035309,388.965790 188.898148,389.086395 188.829575,389.146729  z"/>
<path fill="#DD7E9E" opacity="1.000000" stroke="none" d=" M187.061707,387.254852   C186.967804,387.039520 187.466644,387.033905 187.744949,387.264282   C188.023254,387.494629 188.068024,387.954163 188.068024,387.954163   C188.068024,387.954163 187.910202,388.073090 187.829163,388.134460   C187.517014,387.981384 187.319504,387.739502 187.061707,387.254852  z"/>
<path fill="#DD7E9E" opacity="1.000000" stroke="none" d=" M185.096405,385.225616   C185.236374,385.200531 185.471725,385.413666 185.837402,385.834229   C185.673416,385.901947 185.414780,385.709320 185.096405,385.225616  z"/>
<path fill="#DD7E9E" opacity="1.000000" stroke="none" d=" M184.096161,384.222321   C184.233826,384.199646 184.469849,384.413727 184.837677,384.834930   C184.675644,384.899567 184.417313,384.705261 184.096161,384.222321  z"/>
<path fill="#DD7E9E" opacity="1.000000" stroke="none" d=" M182.846207,383.210297   C182.961563,383.214172 183.278503,383.419525 183.795135,383.822815   C183.679153,383.817749 183.363464,383.614746 182.846207,383.210297  z"/>
<path fill="#E8BED9" opacity="1.000000" stroke="none" d=" M174.259293,289.033264   C174.827621,301.308685 175.517761,313.580444 175.887405,325.861847   C175.993393,329.383270 175.172791,332.932587 174.452271,336.635254   C173.911057,332.467560 173.694595,328.133698 173.366150,323.399597   C172.934784,314.624176 172.615387,306.248993 172.200714,297.437225   C171.888260,288.620087 171.671097,280.239563 171.368958,271.440399   C171.341141,264.202545 171.398285,257.383301 171.590393,250.163452   C171.914856,255.734146 172.014481,261.710388 172.342575,267.674072   C172.457245,269.758636 173.134781,271.812256 173.688141,274.648743   C173.967102,279.956085 174.113205,284.494690 174.259293,289.033264  z"/>
<path fill="#DD8CB0" opacity="1.000000" stroke="none" d=" M250.528427,362.732971   C253.275513,362.613586 255.576477,362.498505 257.877441,362.383453   C257.888245,362.883820 257.899017,363.384216 257.909821,363.884613   C245.673050,363.884613 233.436295,363.884613 221.199539,363.884613   C221.179184,363.502167 221.158829,363.119751 221.138458,362.737305   C230.786407,362.737305 240.434357,362.737305 250.528427,362.732971  z"/>
<path fill="#EABBD1" opacity="1.000000" stroke="none" d=" M186.863220,374.893982   C186.224808,375.083649 185.199051,374.965240 185.184540,374.771240   C184.272888,362.577301 183.443680,350.377258 182.606964,338.177765   C183.132004,338.138458 183.657059,338.099152 184.182098,338.059845   C185.103989,350.223419 186.025894,362.386993 186.863220,374.893982  z"/>
<path fill="#F1C9D7" opacity="1.000000" stroke="none" d=" M231.943726,390.978821   C226.381638,390.668762 221.295746,390.356079 216.209854,390.043365   C216.216248,389.790802 216.222626,389.538239 216.229004,389.285675   C225.095047,389.285675 233.961075,389.285675 242.827118,389.285675   C242.853867,389.554413 242.880615,389.823181 242.907364,390.091919   C239.411560,390.386658 235.915756,390.681427 231.943726,390.978821  z"/>
<path fill="#E398B3" opacity="1.000000" stroke="none" d=" M306.885864,384.614655   C307.271484,385.071625 307.207825,385.393921 307.054321,385.949158   C299.770325,386.536621 292.551239,386.886200 285.332184,387.235809   C285.309265,386.815125 285.286377,386.394440 285.263489,385.973785   C292.329468,385.477478 299.395477,384.981201 306.885864,384.614655  z"/>
<path fill="#E08EAC" opacity="1.000000" stroke="none" d=" M202.601242,388.631348   C195.986252,390.285370 192.759918,386.599762 190.724823,380.885864   C194.762268,383.437775 198.799728,385.989685 202.601242,388.631348  z"/>
<path fill="#F1D1DF" opacity="1.000000" stroke="none" d=" M296.035858,360.548126   C288.514618,361.193329 280.993408,361.838531 273.472168,362.483734   C273.423096,361.984070 273.373993,361.484406 273.324890,360.984741   C280.610443,360.343506 287.895996,359.702271 295.617065,359.449829   C296.046997,360.075104 296.041412,360.311615 296.035858,360.548126  z"/>
<path fill="#E9B7CE" opacity="1.000000" stroke="none" d=" M296.501648,360.497620   C296.041412,360.311615 296.046997,360.075104 296.062622,359.484436   C303.433136,358.745422 310.793640,358.360596 318.620056,358.045471   C319.123199,358.415070 319.179016,358.711487 319.279602,359.227661   C311.859680,359.782959 304.413574,360.115021 296.501648,360.497620  z"/>
<path fill="#DC8AAE" opacity="1.000000" stroke="none" d=" M212.196747,365.669861   C209.664841,364.615540 207.485367,363.658600 204.124954,362.183197   C207.790039,362.183197 210.068573,361.990479 212.283295,362.282257   C213.117554,362.392151 213.803955,363.624390 214.557739,364.345001   C213.888229,364.819061 213.218719,365.293152 212.196747,365.669861  z"/>
<path fill="#D1517C" opacity="1.000000" stroke="none" d=" M193.268219,393.146515   C192.987198,392.713196 192.891998,392.488892 192.651550,391.923523   C196.120575,392.351532 199.734818,393.120575 203.665253,394.015137   C202.890533,395.085602 201.799652,396.030518 200.351166,396.991760   C199.504044,396.415588 199.014542,395.823090 198.245728,395.126068   C196.937271,394.967010 195.908127,394.912537 194.498871,394.862122   C193.897171,394.362640 193.675613,393.859100 193.268219,393.146515  z"/>
<path fill="#C463AC" opacity="1.000000" stroke="none" d=" M174.597870,289.009644   C174.113205,284.494690 173.967102,279.956085 173.914154,274.919556   C174.714264,276.956085 175.586456,279.459320 176.074020,282.035370   C176.440399,283.971191 176.312836,286.000488 176.348312,288.443909   C175.839783,288.928467 175.388123,288.957245 174.597870,289.009644  z"/>
<path fill="#D66288" opacity="1.000000" stroke="none" d=" M188.245789,388.106262   C188.068024,387.954163 188.023254,387.494629 187.994385,387.265839   C188.190445,386.513489 188.415390,385.989899 188.812546,385.237885   C190.570053,386.896240 192.155334,388.783051 193.538940,390.880188   C192.948685,391.100983 192.560059,391.111542 191.592621,391.052185   C190.830826,390.724457 190.622375,390.489227 190.205322,390.127502   C189.843582,389.716187 189.636993,389.478271 189.218872,389.115204   C188.856033,388.708679 188.652115,388.472870 188.245789,388.106262  z"/>
<path fill="#E398B3" opacity="1.000000" stroke="none" d=" M328.174438,387.093323   C328.557220,386.904266 329.112915,386.849365 329.839050,386.936401   C329.455444,387.128082 328.901398,387.177795 328.174438,387.093323  z"/>
</svg>